<?xml version="1.0" encoding="iso-8859-1"?>
<!-- Uploaded to: SVG Repo, www.svgrepo.com, Generator: SVG Repo Mixer Tools -->
<svg height="800px" width="800px" version="1.1" id="Layer_1" xmlns="http://www.w3.org/2000/svg" xmlns:xlink="http://www.w3.org/1999/xlink" 
	 viewBox="0 0 512 512" xml:space="preserve">
<path style="fill:#F0CE49;" d="M422.841,152.717C414.014,73.269,350.455,9.71,271.007,0.883C265.71,0.883,261.297,0,256,0
	c-5.297,0-9.71,0-15.007,0.883C161.545,9.71,97.986,74.152,89.159,152.717c-6.179,56.497,15.007,107.697,52.083,143.007
	c21.186,20.303,38.841,46.786,44.138,75.034h141.241c5.297-28.248,22.952-54.731,44.138-75.034
	C407.834,260.414,429.021,209.214,422.841,152.717"/>
<path style="fill:#B79529;" d="M203.034,176.552c-9.71,0-17.655,7.945-17.655,17.655c0,9.71,7.945,17.655,17.655,17.655h17.655
	v-17.655C220.69,184.497,212.745,176.552,203.034,176.552L203.034,176.552z M291.31,211.862h17.655
	c9.71,0,17.655-7.945,17.655-17.655c0-9.71-7.945-17.655-17.655-17.655s-17.655,7.945-17.655,17.655V211.862z M282.483,379.586
	c-5.297,0-8.828-3.531-8.828-8.828V229.517h-35.31v141.241c0,5.297-3.531,8.828-8.828,8.828s-8.828-3.531-8.828-8.828V229.517
	h-17.655c-19.421,0-35.31-15.89-35.31-35.31s15.89-35.31,35.31-35.31s35.31,15.89,35.31,35.31v17.655h35.31v-17.655
	c0-19.421,15.89-35.31,35.31-35.31s35.31,15.89,35.31,35.31s-15.89,35.31-35.31,35.31H291.31v141.241
	C291.31,376.055,287.779,379.586,282.483,379.586L282.483,379.586z"/>
<path style="fill:#E8EDEE;" d="M185.379,370.759V476.69h141.241v-70.621v-35.31H185.379z"/>
<g>
	<path style="fill:#CBD4D8;" d="M269.241,512h-26.483c-7.945,0-15.89-3.531-21.186-10.593l-18.538-24.717h105.931l-18.538,24.717
		C285.131,508.469,277.186,512,269.241,512"/>
	<path style="fill:#CBD4D8;" d="M247.172,414.897c5.297,0,8.828-3.531,8.828-8.828s-3.531-8.828-8.828-8.828h-61.793v17.655H247.172
		z"/>
	<path style="fill:#CBD4D8;" d="M220.69,450.207c5.297,0,8.828-3.531,8.828-8.828s-3.531-8.828-8.828-8.828h-35.31v17.655H220.69z"
		/>
	<path style="fill:#CBD4D8;" d="M326.621,397.241h-35.31c-5.297,0-8.828,3.531-8.828,8.828s3.531,8.828,8.828,8.828h35.31v-8.828
		V397.241z"/>
	<path style="fill:#CBD4D8;" d="M264.828,432.552c-5.297,0-8.828,3.531-8.828,8.828s3.531,8.828,8.828,8.828h61.793v-17.655H264.828
		z"/>
</g>
</svg>